<?xml version="1.0" encoding="UTF-8" standalone="no"?>
<svg
   xmlns:dc="http://purl.org/dc/elements/1.1/"
   xmlns:cc="http://creativecommons.org/ns#"
   xmlns:rdf="http://www.w3.org/1999/02/22-rdf-syntax-ns#"
   xmlns:svg="http://www.w3.org/2000/svg"
   xmlns="http://www.w3.org/2000/svg"
   id="svg8"
   xml:space="preserve"
   enable-background="new 0 0 1000 1000"
   viewBox="0 0 1000 1000"
   y="0px"
   x="0px"
   version="1.1"><defs
   id="defs12" />
<metadata
   id="metadata2"> Svg Vector Icons : http://www.onlinewebfonts.com/icon <rdf:RDF><cc:Work
     rdf:about=""><dc:format>image/svg+xml</dc:format><dc:type
       rdf:resource="http://purl.org/dc/dcmitype/StillImage" /><dc:title></dc:title></cc:Work></rdf:RDF></metadata>
<g
   id="g6"><path
     id="path4"
     d="M500,108c186.5,0,281.7,25.8,362.5,207.3c12.7,0,50.7,0,61.3,0c37.6,0,37.7,73.3,0,73.3h-31.6c23,32,97.8,107.3,97.8,194.5v288.6l0,0l0,0.5l0,0l0,0.5l0,0l0,0.5l0,0l0,0.5l0,0l-0.1,0.5l0,0l-0.1,0.5h0l-0.1,0.5h0l-0.1,0.5l0,0l-0.1,0.5l0,0l-0.1,0.5l0,0l-0.1,0.5l0,0l-0.1,0.5l0,0l-0.2,0.5l0,0l-0.2,0.5l0,0l-0.2,0.5l0,0l-0.2,0.5l0,0l-0.2,0.4l0,0l-0.2,0.4l0,0l-0.2,0.5l0,0l-0.2,0.4h0l-0.2,0.4h0l-0.2,0.4l0,0l-0.3,0.4l0,0l-0.3,0.4h0l-0.3,0.4l0,0l-0.3,0.4l0,0l-0.3,0.4l0,0l-0.3,0.4l0,0L985,885h0l-0.3,0.4l0,0l-0.3,0.4l0,0L984,886l0,0l-0.4,0.3l0,0l-0.4,0.3l0,0L983,887l0,0l-0.4,0.3l0,0l-0.4,0.3h0l-0.4,0.3l0,0l-0.4,0.3l0,0l-0.4,0.3h0l-0.4,0.3l0,0l-0.4,0.3l0,0l-0.4,0.3h0l-0.4,0.2l0,0l-0.4,0.2l0,0l-0.4,0.2l0,0l-0.4,0.2l0,0l-0.4,0.2l0,0l-0.5,0.2l0,0l-0.5,0.2l0,0l-0.5,0.2l0,0l-0.5,0.2l0,0l-0.5,0.1l0,0l-0.5,0.1l0,0l-0.5,0.1l0,0l-0.5,0.1l0,0l-0.5,0.1l0,0l-0.5,0.1l0,0l-0.5,0.1l0,0l-0.5,0.1l0,0l-0.5,0l0,0l-0.5,0l0,0l-0.5,0l0,0h-0.5h0H862.2c-11.3-0.1-20.2-8.9-20.3-20.3v-47.2H500H158.1l0,47.2c-0.1,11.4-9,20.1-20.3,20.3H30.3h0h-0.5h0l-0.5,0h0l-0.5,0l0,0l-0.5,0l0,0l-0.5-0.1l0,0l-0.5-0.1l0,0l-0.5-0.1l0,0l-0.5-0.1l0,0l-0.5-0.1l0,0l-0.5-0.1l0,0l-0.5-0.1l0,0l-0.5-0.1l0,0l-0.5-0.2l0,0l-0.5-0.2l0,0l-0.5-0.2l0,0l-0.5-0.2l0,0l-0.5-0.2l0,0l-0.5-0.2l0,0l-0.4-0.2l0,0l-0.4-0.2l0,0l-0.4-0.2l0,0l-0.4-0.3l0,0l-0.4-0.3l0,0l-0.4-0.3l0,0l-0.4-0.3l0,0l-0.4-0.3l0,0l-0.4-0.3l0,0l-0.4-0.3l0,0L17,887l0,0l-0.4-0.3l0,0l-0.4-0.3l0,0L16,886l0,0l-0.3-0.4l0,0l-0.3-0.4h0L15,885h0l-0.3-0.4h0l-0.3-0.4l0,0l-0.3-0.4l0,0l-0.3-0.4l0,0l-0.3-0.4h0l-0.3-0.4l0,0l-0.3-0.4l0,0l-0.2-0.4h0l-0.2-0.4h0l-0.2-0.4h0l-0.2-0.5l0,0l-0.2-0.4l0,0l-0.2-0.4l0,0l-0.2-0.5l0,0l-0.2-0.5l0,0l-0.2-0.5h0l-0.2-0.5l0,0l-0.1-0.5l0,0l-0.1-0.5l0,0l-0.1-0.5l0,0l-0.1-0.5l0,0l-0.1-0.5h0l-0.1-0.5h0l-0.1-0.5l0,0l-0.1-0.5l0,0l0-0.5h0l0-0.5l0,0l0-0.5l0,0l0-0.5l0,0V583.1c0-87.2,74.8-162.4,97.8-194.5H76.3c-37.7,0-37.6-73.3,0-73.3c10.6,0,48.5,0,61.3,0C218.3,133.8,313.5,108,500,108L500,108z M500,374.9h311.5c-35.3-184-151.7-212.4-311.5-212.4c-159.8,0-276.2,28.4-311.5,212.4H500L500,374.9z M296.1,643.7c-10.5-19.8-28.8-37.8-32.7-63.4c-1.7-11.4-7.9-16.9-15.8-19.6l-103.8-36c-22.8-7.9-29.4,8.7-31.7,18.2c-6.4,27.6-5.1,51.6,10.6,69.1C153.8,646.2,309,667.9,296.1,643.7L296.1,643.7z M703.9,643.7c-12.8,24.2,142.4,2.5,173.2-31.8c15.7-17.4,17.1-41.4,10.6-69.1c-2.2-9.4-8.9-26.1-31.6-18.2l-103.8,36c-7.9,2.7-14,8.2-15.7,19.6C732.7,605.8,714.4,623.8,703.9,643.7z" /></g>
</svg>